<mxfile host="app.diagrams.net" modified="2021-02-25T01:15:32.899Z" agent="5.0 (Windows)" etag="TmrHFILFxNiobqsC5VBZ" version="14.4.2" type="github">
  <diagram id="dDZ2D7s4tO_t5auYRhyF" name="Page-1">
    <mxGraphModel dx="1560" dy="599" grid="1" gridSize="10" guides="1" tooltips="1" connect="1" arrows="1" fold="1" page="1" pageScale="1" pageWidth="850" pageHeight="1100" math="0" shadow="0">
      <root>
        <mxCell id="0" />
        <mxCell id="1" parent="0" />
        <mxCell id="FkbiFfi5gfxvRpC5khOy-5" value="" style="whiteSpace=wrap;html=1;aspect=fixed;fillColor=#fff2cc;strokeColor=#d6b656;" parent="1" vertex="1">
          <mxGeometry x="360" y="100" width="390" height="390" as="geometry" />
        </mxCell>
        <mxCell id="FkbiFfi5gfxvRpC5khOy-1" value="Light Control Service" style="shape=image;html=1;verticalAlign=top;verticalLabelPosition=bottom;labelBackgroundColor=#ffffff;imageAspect=0;aspect=fixed;image=https://cdn2.iconfinder.com/data/icons/amazon-aws-stencils/100/SDKs_copy_nodeJS-128.png;fillColor=#fff2cc;strokeColor=#d6b656;" parent="1" vertex="1">
          <mxGeometry x="580" y="192" width="128" height="128" as="geometry" />
        </mxCell>
        <mxCell id="r8qZKDxEqpIi0R-0CELh-17" style="edgeStyle=orthogonalEdgeStyle;rounded=0;orthogonalLoop=1;jettySize=auto;html=1;" parent="1" source="FkbiFfi5gfxvRpC5khOy-2" target="FkbiFfi5gfxvRpC5khOy-3" edge="1">
          <mxGeometry relative="1" as="geometry" />
        </mxCell>
        <mxCell id="FkbiFfi5gfxvRpC5khOy-2" value="Auth Service" style="shape=image;html=1;verticalAlign=top;verticalLabelPosition=bottom;labelBackgroundColor=#ffffff;imageAspect=0;aspect=fixed;image=https://cdn2.iconfinder.com/data/icons/amazon-aws-stencils/100/SDKs_copy_nodeJS-128.png;fillColor=#fff2cc;strokeColor=#d6b656;" parent="1" vertex="1">
          <mxGeometry x="560" y="87.7" width="128" height="128" as="geometry" />
        </mxCell>
        <mxCell id="FkbiFfi5gfxvRpC5khOy-3" value="&lt;div&gt;Python Flask&lt;/div&gt;&lt;div&gt;Service&lt;br&gt;&lt;/div&gt;" style="shape=image;html=1;verticalAlign=top;verticalLabelPosition=bottom;labelBackgroundColor=#ffffff;imageAspect=0;aspect=fixed;image=https://cdn4.iconfinder.com/data/icons/essential-app-1/16/science-flask-chemistry-experiment-lab-128.png;fillColor=#fff2cc;strokeColor=#d6b656;" parent="1" vertex="1">
          <mxGeometry x="460" y="248" width="80" height="80" as="geometry" />
        </mxCell>
        <mxCell id="FkbiFfi5gfxvRpC5khOy-4" value="" style="shape=image;html=1;verticalAlign=top;verticalLabelPosition=bottom;labelBackgroundColor=#ffffff;imageAspect=0;aspect=fixed;image=https://cdn3.iconfinder.com/data/icons/logos-and-brands-adobe/512/272_Raspberry_Pi-128.png;fillColor=#fff2cc;strokeColor=#d6b656;" parent="1" vertex="1">
          <mxGeometry x="400" y="90" width="90" height="90" as="geometry" />
        </mxCell>
        <mxCell id="r8qZKDxEqpIi0R-0CELh-18" style="edgeStyle=orthogonalEdgeStyle;rounded=0;orthogonalLoop=1;jettySize=auto;html=1;entryX=0.5;entryY=1;entryDx=0;entryDy=0;" parent="1" source="FkbiFfi5gfxvRpC5khOy-9" target="FkbiFfi5gfxvRpC5khOy-3" edge="1">
          <mxGeometry relative="1" as="geometry" />
        </mxCell>
        <mxCell id="FkbiFfi5gfxvRpC5khOy-9" value="&lt;br&gt;Fire System Servicel" style="shape=image;html=1;verticalAlign=top;verticalLabelPosition=bottom;labelBackgroundColor=#ffffff;imageAspect=0;aspect=fixed;image=https://cdn2.iconfinder.com/data/icons/amazon-aws-stencils/100/SDKs_copy_nodeJS-128.png;fillColor=#fff2cc;strokeColor=#d6b656;" parent="1" vertex="1">
          <mxGeometry x="520" y="320" width="128" height="128" as="geometry" />
        </mxCell>
        <mxCell id="P5HOUL5aMeGehKw4Mg6M-1" value="&lt;div&gt;Control&lt;/div&gt;&lt;div&gt;Server&lt;br&gt;&lt;/div&gt;" style="whiteSpace=wrap;html=1;aspect=fixed;" vertex="1" parent="1">
          <mxGeometry x="450" y="180" width="120" height="120" as="geometry" />
        </mxCell>
        <mxCell id="P5HOUL5aMeGehKw4Mg6M-3" value="MQTT" style="rounded=0;whiteSpace=wrap;html=1;" vertex="1" parent="1">
          <mxGeometry x="450" y="180" width="40" height="40" as="geometry" />
        </mxCell>
        <mxCell id="P5HOUL5aMeGehKw4Mg6M-4" value="CAN" style="rounded=0;whiteSpace=wrap;html=1;" vertex="1" parent="1">
          <mxGeometry x="450" y="220" width="40" height="40" as="geometry" />
        </mxCell>
        <mxCell id="P5HOUL5aMeGehKw4Mg6M-5" value="etc." style="rounded=0;whiteSpace=wrap;html=1;" vertex="1" parent="1">
          <mxGeometry x="450" y="260" width="30" height="40" as="geometry" />
        </mxCell>
        <mxCell id="P5HOUL5aMeGehKw4Mg6M-7" value="API" style="rounded=0;whiteSpace=wrap;html=1;" vertex="1" parent="1">
          <mxGeometry x="534" y="180" width="36" height="120" as="geometry" />
        </mxCell>
        <mxCell id="P5HOUL5aMeGehKw4Mg6M-11" value="CAT 5" style="edgeStyle=orthogonalEdgeStyle;rounded=0;orthogonalLoop=1;jettySize=auto;html=1;entryX=1;entryY=0.5;entryDx=0;entryDy=0;" edge="1" parent="1" source="P5HOUL5aMeGehKw4Mg6M-8" target="P5HOUL5aMeGehKw4Mg6M-10">
          <mxGeometry relative="1" as="geometry" />
        </mxCell>
        <mxCell id="P5HOUL5aMeGehKw4Mg6M-8" value="&lt;div&gt;Built In &lt;br&gt;&lt;/div&gt;&lt;div&gt;Ethernet&lt;br&gt;&lt;/div&gt;" style="pointerEvents=1;shadow=0;dashed=0;html=1;strokeColor=none;fillColor=#434445;aspect=fixed;labelPosition=center;verticalLabelPosition=bottom;verticalAlign=top;align=center;outlineConnect=0;shape=mxgraph.vvd.ethernet_port;" vertex="1" parent="1">
          <mxGeometry x="340" y="160" width="50" height="50" as="geometry" />
        </mxCell>
        <mxCell id="P5HOUL5aMeGehKw4Mg6M-21" style="edgeStyle=orthogonalEdgeStyle;rounded=0;orthogonalLoop=1;jettySize=auto;html=1;startArrow=classic;startFill=1;" edge="1" parent="1" source="P5HOUL5aMeGehKw4Mg6M-9">
          <mxGeometry relative="1" as="geometry">
            <mxPoint x="230" y="287.5" as="targetPoint" />
          </mxGeometry>
        </mxCell>
        <mxCell id="P5HOUL5aMeGehKw4Mg6M-33" value="2 wire" style="edgeLabel;html=1;align=center;verticalAlign=middle;resizable=0;points=[];" vertex="1" connectable="0" parent="P5HOUL5aMeGehKw4Mg6M-21">
          <mxGeometry x="0.2167" y="1" relative="1" as="geometry">
            <mxPoint as="offset" />
          </mxGeometry>
        </mxCell>
        <mxCell id="P5HOUL5aMeGehKw4Mg6M-9" value="&lt;div&gt;CAN Interface&lt;/div&gt;&lt;div&gt;Board&lt;br&gt;&lt;/div&gt;" style="shape=image;html=1;verticalAlign=top;verticalLabelPosition=bottom;labelBackgroundColor=#ffffff;imageAspect=0;aspect=fixed;image=https://cdn4.iconfinder.com/data/icons/johaupt_free_icons_01/com_plug01.png" vertex="1" parent="1">
          <mxGeometry x="350" y="272" width="31" height="31" as="geometry" />
        </mxCell>
        <mxCell id="P5HOUL5aMeGehKw4Mg6M-13" style="edgeStyle=orthogonalEdgeStyle;rounded=0;orthogonalLoop=1;jettySize=auto;html=1;" edge="1" parent="1" source="P5HOUL5aMeGehKw4Mg6M-10" target="P5HOUL5aMeGehKw4Mg6M-12">
          <mxGeometry relative="1" as="geometry" />
        </mxCell>
        <mxCell id="P5HOUL5aMeGehKw4Mg6M-29" value="Cat 5" style="edgeLabel;html=1;align=center;verticalAlign=middle;resizable=0;points=[];" vertex="1" connectable="0" parent="P5HOUL5aMeGehKw4Mg6M-13">
          <mxGeometry x="-0.2352" y="-4" relative="1" as="geometry">
            <mxPoint as="offset" />
          </mxGeometry>
        </mxCell>
        <mxCell id="P5HOUL5aMeGehKw4Mg6M-35" style="edgeStyle=orthogonalEdgeStyle;rounded=0;orthogonalLoop=1;jettySize=auto;html=1;exitX=0.75;exitY=0;exitDx=0;exitDy=0;startArrow=classic;startFill=1;" edge="1" parent="1" source="P5HOUL5aMeGehKw4Mg6M-10">
          <mxGeometry relative="1" as="geometry">
            <mxPoint x="370" y="40" as="targetPoint" />
          </mxGeometry>
        </mxCell>
        <mxCell id="P5HOUL5aMeGehKw4Mg6M-10" value="" style="aspect=fixed;perimeter=ellipsePerimeter;html=1;align=center;shadow=0;dashed=0;spacingTop=3;image;image=img/lib/active_directory/wiring_hub.svg;" vertex="1" parent="1">
          <mxGeometry x="230" y="70" width="50" height="34" as="geometry" />
        </mxCell>
        <mxCell id="P5HOUL5aMeGehKw4Mg6M-12" value="&lt;div&gt;Light&lt;/div&gt;&lt;div&gt;Control&lt;br&gt;&lt;/div&gt;" style="dashed=0;outlineConnect=0;html=1;align=center;labelPosition=center;verticalLabelPosition=bottom;verticalAlign=top;shape=mxgraph.weblogos.arduino;fillColor=#36868D;strokeColor=none" vertex="1" parent="1">
          <mxGeometry x="58" y="71" width="67.4" height="32" as="geometry" />
        </mxCell>
        <mxCell id="P5HOUL5aMeGehKw4Mg6M-18" style="edgeStyle=orthogonalEdgeStyle;rounded=0;orthogonalLoop=1;jettySize=auto;html=1;startArrow=classic;startFill=1;" edge="1" parent="1" source="P5HOUL5aMeGehKw4Mg6M-14" target="P5HOUL5aMeGehKw4Mg6M-12">
          <mxGeometry relative="1" as="geometry">
            <Array as="points">
              <mxPoint x="21" y="87" />
            </Array>
          </mxGeometry>
        </mxCell>
        <mxCell id="P5HOUL5aMeGehKw4Mg6M-32" value="2 wire" style="edgeLabel;html=1;align=center;verticalAlign=middle;resizable=0;points=[];" vertex="1" connectable="0" parent="P5HOUL5aMeGehKw4Mg6M-18">
          <mxGeometry x="-0.4395" y="-2" relative="1" as="geometry">
            <mxPoint as="offset" />
          </mxGeometry>
        </mxCell>
        <mxCell id="P5HOUL5aMeGehKw4Mg6M-14" value="" style="html=1;verticalLabelPosition=bottom;align=center;labelBackgroundColor=#ffffff;verticalAlign=top;strokeWidth=2;strokeColor=#0080F0;shadow=0;dashed=0;shape=mxgraph.ios7.icons.lightbulb;" vertex="1" parent="1">
          <mxGeometry x="10" y="186" width="22.8" height="29.7" as="geometry" />
        </mxCell>
        <mxCell id="P5HOUL5aMeGehKw4Mg6M-19" style="edgeStyle=orthogonalEdgeStyle;rounded=0;orthogonalLoop=1;jettySize=auto;html=1;" edge="1" parent="1" source="P5HOUL5aMeGehKw4Mg6M-15" target="P5HOUL5aMeGehKw4Mg6M-12">
          <mxGeometry relative="1" as="geometry" />
        </mxCell>
        <mxCell id="P5HOUL5aMeGehKw4Mg6M-31" value="2 wire" style="edgeLabel;html=1;align=center;verticalAlign=middle;resizable=0;points=[];" vertex="1" connectable="0" parent="P5HOUL5aMeGehKw4Mg6M-19">
          <mxGeometry x="-0.3415" y="3" relative="1" as="geometry">
            <mxPoint as="offset" />
          </mxGeometry>
        </mxCell>
        <mxCell id="P5HOUL5aMeGehKw4Mg6M-15" value="" style="html=1;verticalLabelPosition=bottom;align=center;labelBackgroundColor=#ffffff;verticalAlign=top;strokeWidth=2;strokeColor=#0080F0;shadow=0;dashed=0;shape=mxgraph.ios7.icons.lightbulb;" vertex="1" parent="1">
          <mxGeometry x="58" y="187" width="22.8" height="29.7" as="geometry" />
        </mxCell>
        <mxCell id="P5HOUL5aMeGehKw4Mg6M-20" style="edgeStyle=orthogonalEdgeStyle;rounded=0;orthogonalLoop=1;jettySize=auto;html=1;startArrow=classic;startFill=1;" edge="1" parent="1" source="P5HOUL5aMeGehKw4Mg6M-16">
          <mxGeometry relative="1" as="geometry">
            <mxPoint x="140" y="90" as="targetPoint" />
          </mxGeometry>
        </mxCell>
        <mxCell id="P5HOUL5aMeGehKw4Mg6M-30" value="2 wire" style="edgeLabel;html=1;align=center;verticalAlign=middle;resizable=0;points=[];" vertex="1" connectable="0" parent="P5HOUL5aMeGehKw4Mg6M-20">
          <mxGeometry x="-0.0243" y="-1" relative="1" as="geometry">
            <mxPoint as="offset" />
          </mxGeometry>
        </mxCell>
        <mxCell id="P5HOUL5aMeGehKw4Mg6M-16" value="" style="html=1;verticalLabelPosition=bottom;align=center;labelBackgroundColor=#ffffff;verticalAlign=top;strokeWidth=2;strokeColor=#0080F0;shadow=0;dashed=0;shape=mxgraph.ios7.icons.lightbulb;" vertex="1" parent="1">
          <mxGeometry x="110" y="190.3" width="22.8" height="29.7" as="geometry" />
        </mxCell>
        <mxCell id="P5HOUL5aMeGehKw4Mg6M-22" value="Controller" style="whiteSpace=wrap;html=1;aspect=fixed;" vertex="1" parent="1">
          <mxGeometry x="150" y="248" width="80" height="80" as="geometry" />
        </mxCell>
        <mxCell id="P5HOUL5aMeGehKw4Mg6M-26" style="edgeStyle=orthogonalEdgeStyle;rounded=0;orthogonalLoop=1;jettySize=auto;html=1;entryX=0.013;entryY=0.625;entryDx=0;entryDy=0;entryPerimeter=0;startArrow=classic;startFill=1;" edge="1" parent="1" source="P5HOUL5aMeGehKw4Mg6M-23" target="P5HOUL5aMeGehKw4Mg6M-24">
          <mxGeometry relative="1" as="geometry">
            <Array as="points">
              <mxPoint x="40" y="363" />
              <mxPoint x="80" y="363" />
              <mxPoint x="80" y="440" />
            </Array>
          </mxGeometry>
        </mxCell>
        <mxCell id="P5HOUL5aMeGehKw4Mg6M-34" value="2 wire" style="edgeLabel;html=1;align=center;verticalAlign=middle;resizable=0;points=[];" vertex="1" connectable="0" parent="P5HOUL5aMeGehKw4Mg6M-26">
          <mxGeometry x="-0.3475" relative="1" as="geometry">
            <mxPoint as="offset" />
          </mxGeometry>
        </mxCell>
        <mxCell id="P5HOUL5aMeGehKw4Mg6M-23" value="Light" style="whiteSpace=wrap;html=1;aspect=fixed;" vertex="1" parent="1">
          <mxGeometry y="255" width="80" height="80" as="geometry" />
        </mxCell>
        <mxCell id="P5HOUL5aMeGehKw4Mg6M-24" value="switch" style="whiteSpace=wrap;html=1;aspect=fixed;" vertex="1" parent="1">
          <mxGeometry x="150" y="410" width="80" height="80" as="geometry" />
        </mxCell>
        <mxCell id="P5HOUL5aMeGehKw4Mg6M-25" value="2 wire" style="endArrow=classic;startArrow=classic;html=1;exitX=1;exitY=0.5;exitDx=0;exitDy=0;" edge="1" parent="1" source="P5HOUL5aMeGehKw4Mg6M-23" target="P5HOUL5aMeGehKw4Mg6M-22">
          <mxGeometry width="50" height="50" relative="1" as="geometry">
            <mxPoint x="66.69999999999999" y="305" as="sourcePoint" />
            <mxPoint x="116.69999999999999" y="255" as="targetPoint" />
          </mxGeometry>
        </mxCell>
        <mxCell id="P5HOUL5aMeGehKw4Mg6M-28" style="edgeStyle=orthogonalEdgeStyle;rounded=0;orthogonalLoop=1;jettySize=auto;html=1;startArrow=classic;startFill=1;" edge="1" parent="1" source="P5HOUL5aMeGehKw4Mg6M-27">
          <mxGeometry relative="1" as="geometry">
            <mxPoint x="90" y="440" as="targetPoint" />
          </mxGeometry>
        </mxCell>
        <mxCell id="P5HOUL5aMeGehKw4Mg6M-27" value="smoke" style="whiteSpace=wrap;html=1;aspect=fixed;" vertex="1" parent="1">
          <mxGeometry x="-47.2" y="420" width="80" height="80" as="geometry" />
        </mxCell>
      </root>
    </mxGraphModel>
  </diagram>
</mxfile>
